<svg xmlns="http://www.w3.org/2000/svg" width="36.624" height="36.001" viewBox="0 0 36.624 36.001">
  <path fill="#000000" id="Icon_awesome-hand-spock" data-name="Icon awesome-hand-spock" d="M2.2,6.827A2.868,2.868,0,0,1,5.65,8.909L7.853,18h.794L5.528,5.745a2.811,2.811,0,0,1,2.081-3.41A2.866,2.866,0,0,1,11.079,4.38L14.541,18h1.08l3.7-15.813A2.869,2.869,0,0,1,22.752.07,2.806,2.806,0,0,1,24.9,3.438l-3.4,14.555h.7L24.683,7.249a2.863,2.863,0,0,1,3.426-2.116A2.812,2.812,0,0,1,30.262,8.5l-2.79,12.066v5.583l4.335-4.008a2.894,2.894,0,0,1,4.041.12,2.777,2.777,0,0,1-.122,3.973l-9.563,8.852c-.637.591,2.818.914,1.946.914H8.31a3.42,3.42,0,0,1-3.29-2.419L3.146,27.373a6.71,6.71,0,0,1-.286-1.92V22.5a6.707,6.707,0,0,0-.186-1.561L.078,10.216A2.825,2.825,0,0,1,2.2,6.827Z" transform="translate(-0.002 0.001)"/>
</svg>
