<svg xmlns="http://www.w3.org/2000/svg" width="36.001" height="36.001" viewBox="0 0 36.001 36.001">
  <path fill="#000000"  id="Icon_awesome-hand-spock" data-name="Icon awesome-hand-spock" d="M33.841,6.827a2.817,2.817,0,0,0-3.389,2.081L28.287,18h-.78L30.572,5.745A2.812,2.812,0,1,0,25.116,4.38L21.712,18H20.651L17.016,2.187a2.813,2.813,0,1,0-5.484,1.252l3.347,14.555h-.689L11.742,7.249A2.813,2.813,0,0,0,6.258,8.5L9,20.566v5.583L4.739,22.141A2.81,2.81,0,0,0,.886,26.234l9.4,8.852A3.369,3.369,0,0,0,12.6,36H27.837a3.369,3.369,0,0,0,3.234-2.419l1.842-6.209a6.818,6.818,0,0,0,.281-1.92V22.5a6.817,6.817,0,0,1,.183-1.561L35.93,10.216a2.827,2.827,0,0,0-2.088-3.389Z" transform="translate(-0.002 0.001)"/>
</svg>
